<svg xmlns="http://www.w3.org/2000/svg" width="24" height="24" viewBox="0 0 24 24" fill="none">
  <g clip-path="url(#clip0_3970_5488)">
    <path fill-rule="evenodd" clip-rule="evenodd" d="M15.0063 4C15.7506 4 16.5356 4.25975 17.2565 4.54665L17.7835 4.76328C19.0434 5.29134 19.7516 6.39876 20.3007 7.61613C21.1914 9.59078 21.8099 12.2238 22.0241 14.2256C22.1259 15.1766 22.1515 16.1321 21.9679 16.7747C21.7716 17.4617 21.1007 17.9478 20.4498 18.3303L20.1283 18.5134L19.7939 18.6986C19.6218 18.7947 19.4453 18.8901 19.2692 18.9831L18.7468 19.2532L18.0303 19.6105L17.4535 19.8944C16.9596 20.1414 16.3589 19.9412 16.1119 19.4472C15.8649 18.9532 16.0651 18.3526 16.5591 18.1056L17.3501 17.7158L16.7695 17.1071C15.3797 17.6777 13.7421 18 12.0033 18C10.2644 18 8.62677 17.6777 7.23695 17.1071L6.65732 17.7148L7.45044 18.1056C7.94441 18.3526 8.14464 18.9532 7.89765 19.4472C7.65066 19.9412 7.04999 20.1414 6.55601 19.8944L6.01239 19.6247C5.60968 19.4256 5.20704 19.2265 4.80892 19.0185L3.88122 18.5134L3.55975 18.3303C2.90887 17.9478 2.23795 17.4617 2.04168 16.7747C1.8581 16.1321 1.88368 15.1766 1.98544 14.2256C2.19962 12.2238 2.81813 9.59078 3.70884 7.61613C4.25796 6.39877 4.96613 5.29134 6.22606 4.76328C7.0622 4.41284 8.07488 4 9.00321 4C9.6062 4 10.0799 4.55523 9.99244 5.14727C10.6398 5.05075 11.3131 5 12.0033 5C12.6946 5 13.3689 5.05091 14.0172 5.14774C13.9295 4.55557 14.4032 4 15.0063 4ZM8.75323 10.5C7.78673 10.5 7.00323 11.2835 7.00323 12.25C7.00323 13.2165 7.78673 14 8.75323 14C9.71973 14 10.5033 13.2165 10.5033 12.25C10.5033 11.2835 9.71973 10.5 8.75323 10.5ZM15.2533 10.5C14.2868 10.5 13.5033 11.2835 13.5033 12.25C13.5033 13.2165 14.2868 14 15.2533 14C16.2198 14 17.0033 13.2165 17.0033 12.25C17.0033 11.2835 16.2198 10.5 15.2533 10.5Z" fill="white"/>
  </g>
  <defs>
    <clipPath id="clip0_3970_5488">
      <rect width="24" height="24" fill="white"/>
    </clipPath>
  </defs>
</svg>