<svg xmlns="http://www.w3.org/2000/svg" width="29" height="29" viewBox="0 0 29 29" fill="none">
  <path d="M11.3742 13.4129C13.1142 16.8325 15.9175 19.6237 19.3371 21.3758L21.9954 18.7175C22.3217 18.3913 22.805 18.2825 23.2279 18.4275C24.5813 18.8746 26.0433 19.1163 27.5417 19.1163C28.2063 19.1163 28.75 19.66 28.75 20.3246V24.5417C28.75 25.2063 28.2063 25.75 27.5417 25.75C16.1954 25.75 7 16.5546 7 5.20833C7 4.54375 7.54375 4 8.20833 4H12.4375C13.1021 4 13.6458 4.54375 13.6458 5.20833C13.6458 6.71875 13.8875 8.16875 14.3346 9.52208C14.4675 9.945 14.3708 10.4163 14.0325 10.7546L11.3742 13.4129Z" fill="white"/>
</svg>