<svg xmlns="http://www.w3.org/2000/svg" width="28" height="25" viewBox="0 0 28 25" fill="none">
  <path d="M0.726253 24.9394C0.514247 24.8657 0.330318 24.7271 0.200126 24.5428C0.0699337 24.3586 -2.82433e-05 24.1379 8.5531e-09 23.9116C8.5531e-09 18.9459 0.988081 14.9746 2.93799 12.1072C5.29377 8.64276 9.00984 6.77738 14 6.54574V1.0868C14.0001 0.873974 14.062 0.665836 14.1782 0.488206C14.2943 0.310577 14.4596 0.171273 14.6535 0.0875759C14.8473 0.00387908 15.0613 -0.0205275 15.2688 0.0173837C15.4763 0.0552949 15.6682 0.153856 15.8207 0.300839L27.6669 11.7132C27.7722 11.8147 27.856 11.9367 27.9132 12.0718C27.9705 12.2069 28 12.3523 28 12.4992C28 12.6461 27.9705 12.7915 27.9132 12.9266C27.856 13.0617 27.7722 13.1837 27.6669 13.2852L15.8207 24.6976C15.6682 24.8446 15.4763 24.9431 15.2688 24.981C15.0613 25.0189 14.8473 24.9945 14.6535 24.9108C14.4596 24.8271 14.2943 24.6878 14.1782 24.5102C14.062 24.3326 14.0001 24.1244 14 23.9116V18.4928C10.9712 18.5851 8.68272 19.0804 6.8607 20.0307C4.89194 21.0578 3.46434 22.5924 1.92568 24.5821C1.78765 24.7605 1.59788 24.8909 1.38286 24.9552C1.16784 25.0195 0.938292 25.0145 0.726253 24.9408V24.9394Z" fill="#F8F8F8"/>
</svg>