<svg xmlns="http://www.w3.org/2000/svg" width="94" height="94" viewBox="0 0 94 94" fill="none">
  <path d="M49 27H43V51L64 63.6L67 58.68L49 48V27Z" fill="white"/>
  <g filter="url(#filter0_dd_231_1026)">
    <path d="M46.96 7C24.88 7 7 24.92 7 47C7 69.08 24.88 87 46.96 87C69.08 87 87 69.08 87 47C87 24.92 69.08 7 46.96 7ZM47 79C29.32 79 15 64.68 15 47C15 29.32 29.32 15 47 15C64.68 15 79 29.32 79 47C79 64.68 64.68 79 47 79Z" fill="white"/>
  </g>
  <defs>
    <filter id="filter0_dd_231_1026" x="0.68875" y="0.68875" width="92.6225" height="92.6225" filterUnits="userSpaceOnUse" color-interpolation-filters="sRGB">
      <feFlood flood-opacity="0" result="BackgroundImageFix"/>
      <feColorMatrix in="SourceAlpha" type="matrix" values="0 0 0 0 0 0 0 0 0 0 0 0 0 0 0 0 0 0 127 0" result="hardAlpha"/>
      <feOffset/>
      <feGaussianBlur stdDeviation="1.57781"/>
      <feColorMatrix type="matrix" values="0 0 0 0 1 0 0 0 0 1 0 0 0 0 1 0 0 0 1 0"/>
      <feBlend mode="normal" in2="BackgroundImageFix" result="effect1_dropShadow_231_1026"/>
      <feColorMatrix in="SourceAlpha" type="matrix" values="0 0 0 0 0 0 0 0 0 0 0 0 0 0 0 0 0 0 127 0" result="hardAlpha"/>
      <feOffset/>
      <feGaussianBlur stdDeviation="3.15563"/>
      <feColorMatrix type="matrix" values="0 0 0 0 1 0 0 0 0 1 0 0 0 0 1 0 0 0 1 0"/>
      <feBlend mode="normal" in2="effect1_dropShadow_231_1026" result="effect2_dropShadow_231_1026"/>
      <feBlend mode="normal" in="SourceGraphic" in2="effect2_dropShadow_231_1026" result="shape"/>
    </filter>
  </defs>
</svg>