<svg xmlns="http://www.w3.org/2000/svg" width="20" height="20" viewBox="0 0 20 20" fill="none">
  <path fill-rule="evenodd" clip-rule="evenodd" d="M4.41058 4.41205C4.73602 4.08661 5.26366 4.08661 5.58909 4.41205L9.99984 8.82279L14.4106 4.41205C14.736 4.08661 15.2637 4.08661 15.5891 4.41205C15.9145 4.73748 15.9145 5.26512 15.5891 5.59056L11.1783 10.0013L15.5891 14.412C15.9145 14.7375 15.9145 15.2651 15.5891 15.5906C15.2637 15.916 14.736 15.916 14.4106 15.5906L9.99984 11.1798L5.58909 15.5906C5.26366 15.916 4.73602 15.916 4.41058 15.5906C4.08514 15.2651 4.08514 14.7375 4.41058 14.412L8.82133 10.0013L4.41058 5.59056C4.08514 5.26512 4.08514 4.73748 4.41058 4.41205Z" fill="#808080"/>
</svg>