<svg xmlns="http://www.w3.org/2000/svg" width="24" height="24" viewBox="0 0 24 24" fill="none">
  <g clip-path="url(#clip0_3970_5476)">
    <path fill-rule="evenodd" clip-rule="evenodd" d="M19.7832 4.4296C20.8711 3.97153 22.0374 4.89146 21.8453 6.05615L19.5764 19.8129C19.3576 21.1393 17.9008 21.9004 16.6839 21.2394C15.6656 20.6863 14.1548 19.835 12.7932 18.9453C12.1133 18.501 10.0314 17.0764 10.2873 16.0623C10.5061 15.1952 14.006 11.9373 16.006 9.99976C16.7916 9.23869 16.4338 8.79902 15.506 9.49976C13.2044 11.2381 9.50917 13.881 8.28721 14.6248C7.20908 15.281 6.64617 15.393 5.97472 15.281C4.74859 15.0767 3.61182 14.7603 2.68374 14.3756C1.42937 13.8556 1.49047 12.1318 2.68289 11.6298L19.7832 4.4296Z" fill="white"/>
  </g>
  <defs>
    <clipPath id="clip0_3970_5476">
      <rect width="24" height="24" fill="white"/>
    </clipPath>
  </defs>
</svg>