<svg xmlns="http://www.w3.org/2000/svg" width="20" height="20" viewBox="0 0 20 20" fill="none">
  <g clip-path="url(#clip0_3617_7539)">
    <path fill-rule="evenodd" clip-rule="evenodd" d="M7.4974 1.66797C6.57692 1.66797 5.83073 2.41416 5.83073 3.33464V5.0013H7.4974V3.33464H16.6641V12.5013H14.9974V14.168H16.6641C17.5846 14.168 18.3307 13.4218 18.3307 12.5013V3.33464C18.3307 2.41416 17.5846 1.66797 16.6641 1.66797H7.4974ZM3.33073 5.83464C2.41025 5.83464 1.66406 6.58083 1.66406 7.5013V16.668C1.66406 17.5885 2.41025 18.3346 3.33073 18.3346H12.4974C13.4179 18.3346 14.1641 17.5885 14.1641 16.668V7.5013C14.1641 6.58083 13.4179 5.83464 12.4974 5.83464H3.33073Z" fill="white"/>
  </g>
  <defs>
    <clipPath id="clip0_3617_7539">
      <rect width="20" height="20" fill="white"/>
    </clipPath>
  </defs>
</svg>