<svg xmlns="http://www.w3.org/2000/svg" width="33" height="32" viewBox="0 0 33 32" fill="none">
  <g clip-path="url(#clip0_25341_137472)">
    <path fill-rule="evenodd" clip-rule="evenodd" d="M16.5001 17.5363L22.6455 23.6818C23.0697 24.1061 23.7576 24.1061 24.1818 23.6818C24.6061 23.2575 24.6061 22.5697 24.1818 22.1454L18.0364 16L24.1818 9.85456C24.6061 9.43031 24.6061 8.74246 24.1818 8.31821C23.7576 7.89395 23.0697 7.89395 22.6455 8.31821L16.5001 14.4637L10.3545 8.31819C9.9303 7.89394 9.24244 7.89394 8.81819 8.31819C8.39394 8.74245 8.39394 9.43029 8.81819 9.85455L14.9636 16L8.81819 22.1455C8.39394 22.5697 8.39394 23.2575 8.81819 23.6818C9.24244 24.1061 9.9303 24.1061 10.3545 23.6818L16.5001 17.5363Z" fill="#584C71"/>
  </g>
  <defs>
    <clipPath id="clip0_25341_137472">
      <rect width="32" height="32" fill="white" transform="translate(0.5)"/>
    </clipPath>
  </defs>
</svg>